<?xml version="1.0" encoding="UTF-8" standalone="no"?>
<!DOCTYPE svg PUBLIC "-//W3C//DTD SVG 1.1//EN" "http://www.w3.org/Graphics/SVG/1.1/DTD/svg11.dtd">
<svg width="100%" height="100%" viewBox="0 0 1122 1376" version="1.1" xmlns="http://www.w3.org/2000/svg" xmlns:xlink="http://www.w3.org/1999/xlink" xml:space="preserve" xmlns:serif="http://www.serif.com/" style="fill-rule:evenodd;clip-rule:evenodd;stroke-linejoin:round;">
    <g id="sticker-outline">
        <path d="M1034,42L1021,35L992,35L346,161L325,179L32,746L18,764L18,802L37,820L104,817C104,817 103.042,859.279 129,865C154.958,870.721 229,850 229,850L203,907L78,1208C78,1208 62.765,1225.899 87,1242C117.798,1262.46 192,1204 192,1204C192,1204 127.659,1253.498 138,1270C148.341,1286.502 186.311,1312.7 211,1309C235.689,1305.3 939,648 939,648L932,619C932,619 1100.218,466.479 1103,458C1105.782,449.521 1112.15,430.616 1103,426C1093.85,421.384 1039,419 1039,419C1039,419 1089.879,367.269 1077,345C1064.121,334.731 885,346 885,346L920,292L1054,94L1054,65L1034,42Z" style="fill:white;fill-rule:nonzero;stroke:rgb(207,207,207);stroke-width:2px;"/>
    </g>
    <g id="blue-halftone-layer">
        <path d="M229,1249L228,1248L183,1284L185,1286L188,1286L195,1282L201,1290L205,1286L210,1284L215,1276L223,1274L230,1268L230,1263L227,1258L229,1249ZM256,1239L246,1247L246,1251L244,1254L245,1255L249,1254L256,1247L256,1239ZM270,1208L253,1225L258,1231L273,1222L270,1218L270,1208ZM247,1175L222,1200L211,1209L213,1218L209,1225L210,1228L196,1243L194,1242L194,1240L198,1235L197,1229L201,1225L205,1216L204,1215L158,1250L155,1257L156,1261L159,1265L164,1265L191,1246L192,1247L183,1265L175,1277L175,1280L188,1273L195,1265L224,1218L223,1217L214,1225L212,1224L228,1210L228,1205L241,1188L248,1176L247,1175ZM434,1069L425,1076L427,1081L432,1076L437,1074L434,1069ZM486,1010L479,1018L473,1020L477,1024L479,1029L490,1020L486,1010ZM454,1008L400,1064L307,1166L299,1176L303,1181L306,1177L320,1169L317,1164L318,1160L354,1123L357,1126L362,1120L370,1117L370,1104L400,1072L406,1069L405,1064L431,1040L433,1040L436,1044L444,1037L443,1033L446,1026L458,1017L456,1015L454,1008ZM525,978L520,984L511,987L515,991L517,996L521,991L529,987L525,978ZM491,970L478,984L478,986L483,992L487,986L496,983L492,976L491,970ZM566,942L556,953L549,955L556,965L561,959L570,954L567,950L566,942ZM610,894L606,899L596,904L599,907L602,914L615,906L612,902L610,894ZM651,861L647,865L636,869L640,873L642,880L646,876L653,874L655,872L653,870L651,861ZM658,842L652,846L655,858L662,854L658,842ZM701,818L695,824L686,828L692,837L698,830L704,826L701,818ZM713,790L711,791L709,797L705,801L706,807L708,809L710,809L721,801L713,790ZM751,767L741,772L744,776L746,783L756,778L751,767ZM265,751L264,750L234,759L232,761L232,768L227,776L228,777L256,769L258,756L265,751ZM782,741L773,747L777,752L786,749L782,741ZM305,740L303,739L274,748L274,756L268,764L272,765L304,755L301,752L300,745L305,740ZM244,729L238,731L235,734L234,738L237,742L247,736L244,729ZM813,718L804,724L810,732L818,725L813,718ZM378,719L371,719L311,737L308,739L313,742L314,747L309,753L312,754L336,746L339,747L366,740L370,737L378,719ZM344,732L347,736L337,746L334,743L334,739L339,733L344,732ZM851,690L848,693L838,696L843,702L852,695L851,690ZM841,671L840,670L765,724L677,794L594,869L509,953L517,954L524,963L531,955L535,954L536,952L533,949L529,938L529,935L548,921L560,910L566,918L570,909L574,905L584,900L580,895L579,889L601,870L604,869L608,873L611,880L614,872L624,865L620,853L653,822L658,825L661,831L666,825L673,822L669,817L669,809L686,794L691,795L707,780L711,783L714,775L720,769L726,767L726,762L744,746L747,745L754,755L758,749L764,746L760,740L760,734L775,722L778,722L783,729L789,724L794,723L796,720L793,716L792,710L808,696L810,696L814,700L817,707L819,701L823,697L830,694L827,684L841,671ZM857,659L842,669L849,674L853,681L867,669L857,659ZM809,655L801,662L802,665L805,665L811,661L809,655ZM884,641L871,650L874,662L877,664L887,658L890,659L897,651L896,650L890,652L887,649L884,641ZM911,599L910,598L901,602L901,606L903,607L911,599ZM941,567L932,574L934,578L942,571L941,567ZM990,515L982,521L987,525L991,522L990,515ZM1080,436L1078,434L1072,434L1067,438L1063,438L1060,435L1058,438L1058,445L1055,448L1042,453L1038,451L1035,452L1024,463L1031,468L1031,471L1027,475L1020,477L1019,471L1016,470L867,601L858,610L858,613L855,616L852,615L817,648L825,655L837,650L838,648L835,645L833,638L842,630L845,632L851,641L863,632L867,633L867,636L870,641L884,636L886,634L884,632L886,627L883,621L876,628L866,631L862,625L860,615L871,604L876,606L884,615L897,602L891,589L893,585L902,576L906,577L911,574L916,578L919,584L926,574L920,561L933,549L940,555L943,561L949,553L959,548L960,543L958,540L958,534L960,530L967,522L973,519L971,514L984,502L987,505L991,513L1003,507L1005,505L1002,497L1002,493L1004,491L1006,491L1016,480L1018,480L1026,490L1032,485L1031,474L1033,472L1042,473L1051,468L1055,464L1058,463L1056,454L1061,449L1068,446L1064,442L1070,438L1077,438L1080,436ZM955,525L957,527L957,531L949,537L947,535L955,525ZM1051,455L1053,458L1050,461L1047,461L1046,458L1049,455L1051,455ZM978,421L975,421L971,425L973,429L980,426L978,421ZM983,406L981,406L976,411L978,414L981,414L985,410L983,406ZM1004,395L993,401L993,407L997,412L1009,405L1004,395ZM1048,375L1045,375L1040,378L1042,383L1049,376L1048,375ZM898,375L895,375L887,383L892,391L886,395L886,397L900,394L901,389L906,383L898,375ZM882,383L879,380L877,374L865,374L860,386L857,389L850,391L844,379L834,377L824,394L821,393L820,388L813,396L805,400L808,403L808,405L802,410L805,411L815,408L824,408L839,405L840,399L849,392L852,395L854,402L875,399L878,397L876,395L876,391L882,383ZM928,370L918,371L913,379L908,383L914,392L922,391L927,383L933,381L928,370ZM964,363L960,362L957,364L952,364L950,366L950,375L946,379L937,382L937,387L940,388L951,386L951,380L953,378L956,378L963,383L966,383L968,380L959,373L959,369L964,363ZM834,362L829,365L819,367L818,372L821,377L831,375L835,367L834,362ZM974,380L988,380L994,376L1005,374L1008,377L1012,377L1017,386L1023,387L1036,377L1036,371L1033,365L1023,363L1012,373L1005,373L1002,370L998,360L995,359L991,363L979,364L979,374L974,380ZM847,337L833,342L834,351L837,356L843,355L850,350L850,345L847,337ZM863,315L850,320L849,329L851,333L860,332L864,328L866,324L863,315ZM877,293L872,293L865,297L865,305L868,310L875,308L879,305L880,298L877,293ZM893,271L887,271L880,277L880,282L883,287L887,287L895,281L896,278L893,271ZM907,246L901,246L894,250L894,255L898,262L903,261L909,257L910,253L907,246ZM887,242L824,324L755,418L756,419L791,413L795,407L802,401L798,393L797,386L798,383L804,379L803,376L814,366L813,354L821,345L829,339L829,330L840,317L844,317L846,315L845,308L848,302L858,295L858,284L870,274L871,267L879,260L880,253L888,247L887,242ZM789,376L794,380L794,382L788,388L786,388L783,385L783,383L789,376ZM923,223L911,227L912,234L914,237L925,231L925,225L923,223ZM935,201L930,201L924,205L924,210L927,216L933,215L938,211L939,207L935,201ZM385,177L353,183L345,191L41,778L43,794L57,804L137,785L124,823L126,836L136,843L264,820L103,1206L102,1222L113,1232L126,1223L112,1217L113,1207L122,1202L131,1212L139,1197L126,1193L127,1179L138,1175L147,1183L159,1152L171,1138L174,1152L179,1144L176,1119L185,1115L190,1120L195,1113L188,1104L202,1081L212,1084L206,1063L214,1055L223,1059L227,1051L218,1046L217,1036L224,1029L235,1033L239,1025L227,1012L236,1002L247,1007L250,1001L238,987L244,980L256,985L260,979L250,972L250,960L258,954L268,959L272,952L260,936L270,926L282,930L285,923L275,918L273,908L283,899L294,904L298,895L288,890L287,879L295,871L307,875L310,867L300,853L308,845L319,849L322,841L313,829L331,822L326,802L342,797L346,788L340,783L350,780L367,743L297,774L252,810L246,808L272,788L271,780L232,797L227,793L195,806L142,812L152,799L159,804L213,781L207,776L209,766L173,781L138,783L218,734L161,749L146,769L149,754L134,764L118,761L115,771L93,777L96,770L88,766L110,749L115,733L126,735L128,743L136,740L132,733L139,728L124,718L135,719L136,709L147,710L140,687L161,679L153,662L173,652L165,637L184,628L177,612L195,604L189,589L205,583L200,566L216,559L209,542L226,537L218,521L237,513L231,496L249,486L243,474L259,464L256,450L272,435L270,424L282,413L278,404L294,387L295,370L302,369L302,356L315,342L315,327L328,313L327,302L337,293L385,177ZM157,1130L162,1137L161,1146L155,1152L152,1152L150,1154L153,1159L151,1166L148,1169L143,1169L137,1163L137,1158L146,1151L142,1145L143,1137L148,1132L157,1130ZM185,1069L191,1076L191,1085L185,1092L178,1094L181,1103L177,1108L171,1121L166,1125L161,1124L155,1118L155,1110L159,1105L166,1102L166,1099L169,1095L175,1092L172,1088L171,1083L175,1075L180,1070L185,1069ZM194,1043L201,1048L202,1057L197,1064L189,1065L184,1060L183,1054L185,1049L190,1044L194,1043ZM201,1017L207,1017L213,1023L213,1031L207,1038L198,1037L194,1030L196,1022L201,1017ZM213,991L219,991L225,999L223,1008L218,1012L213,1012L209,1010L205,1003L207,996L213,991ZM225,966L231,967L235,972L235,980L229,987L221,986L216,980L217,972L225,966ZM234,939L241,940L246,946L245,955L237,961L231,960L226,954L226,948L228,944L234,939ZM252,913L257,918L258,926L252,934L247,935L240,931L238,924L240,919L246,913L252,913ZM258,888L265,888L270,895L270,900L268,904L262,908L256,907L251,900L253,892L258,888ZM271,861L277,861L282,867L281,876L274,881L269,880L264,874L265,866L271,861ZM285,833L289,833L295,840L294,847L287,852L283,851L278,845L280,837L285,833ZM142,815L139,818L133,818L137,813L140,813L142,815ZM298,809L302,810L306,815L305,820L301,824L295,824L291,819L292,814L298,809ZM306,792L309,792L312,795L312,797L308,801L304,798L304,794L306,792ZM57,790L60,790L63,793L63,796L60,799L56,799L53,795L57,790ZM91,784L94,781L98,781L100,783L96,786L93,786L91,784ZM73,762L80,767L81,776L76,782L68,784L61,779L60,771L65,764L68,762L73,762ZM83,739L88,740L92,744L94,750L92,755L88,759L79,760L75,757L73,753L73,748L77,742L83,739ZM91,713L99,715L104,722L103,728L98,733L94,734L88,732L83,724L85,717L91,713ZM109,693L114,694L120,702L119,707L112,713L105,712L100,706L102,698L109,693ZM128,668L134,672L136,679L131,687L124,689L118,685L117,677L121,671L128,668ZM139,641L144,643L148,647L149,655L143,662L135,663L129,657L129,650L136,642L139,641ZM149,617L155,617L161,624L160,632L155,637L151,638L147,637L142,632L142,624L149,617ZM164,591L168,592L173,597L174,605L169,612L160,613L155,609L154,601L156,597L164,591ZM172,569L180,570L185,576L184,584L178,589L173,589L166,583L165,577L167,573L172,569ZM184,548L189,548L192,550L196,557L195,563L189,568L181,566L177,560L179,552L184,548ZM195,525L201,526L206,534L203,542L197,546L191,544L187,539L188,530L195,525ZM205,501L212,503L215,507L215,515L210,521L201,520L197,514L198,506L205,501ZM210,485L212,486L212,489L216,495L213,496L210,492L210,485ZM223,479L225,479L228,483L228,490L222,484L223,479ZM991,147L988,144L986,144L983,150L988,151L991,147ZM1018,92L1015,93L1011,87L1003,96L995,101L991,109L981,119L977,125L977,128L971,133L950,161L950,163L928,189L930,191L932,191L936,186L938,186L941,191L945,188L952,191L955,190L957,183L953,177L951,178L951,181L945,186L943,186L940,182L958,167L963,169L966,169L968,167L968,164L971,159L969,158L964,163L962,162L962,160L967,155L972,146L972,139L978,134L983,134L989,126L985,123L986,117L988,115L991,115L996,118L1000,113L1004,111L1002,109L998,112L996,110L996,107L999,102L1003,99L1008,102L1012,97L1017,95L1019,93L1018,92ZM968,87L975,94L981,90L981,88L978,86L970,85L968,87ZM944,84L943,86L949,91L950,85L948,83L944,84ZM965,65L953,66L952,68L954,70L960,67L964,68L965,65ZM994,60L992,58L983,60L982,65L983,66L986,64L993,64L994,60Z" style="fill:rgb(7,159,227);"/>
    </g>
    <g id="dark-navy-layer">
        <path d="M210,1212L206,1215L202,1225L198,1229L199,1235L195,1240L196,1242L209,1228L208,1225L212,1218L212,1214L210,1212ZM344,733L341,733L336,737L336,744L340,743L346,736L344,733ZM955,526L950,531L948,535L949,536L956,531L955,526ZM1083,439L1080,437L1067,448L1061,450L1057,455L1059,463L1057,465L1055,465L1051,469L1042,474L1033,474L1033,485L1026,491L1018,481L1016,481L1006,492L1003,493L1006,506L993,513L992,522L988,526L981,522L982,519L986,518L990,514L986,505L984,503L972,514L974,519L967,523L959,534L961,547L949,554L943,562L934,550L929,553L921,561L924,569L927,572L921,584L919,586L915,578L911,575L906,578L902,577L894,585L892,589L898,602L884,616L873,605L871,605L861,615L861,619L865,629L867,630L876,627L882,620L885,622L887,626L893,622L915,600L984,537L983,536L979,539L978,537L986,530L990,531L1011,512L1010,509L1012,507L1015,508L1066,462L1082,446L1083,439ZM911,597L912,599L903,608L901,608L899,603L911,597ZM941,566L943,568L943,571L933,579L931,574L941,566ZM789,377L784,383L786,387L788,387L793,382L793,380L789,377ZM1021,61L1001,57L990,70L980,61L961,73L882,79L387,178L139,729L251,696L179,741L220,736L140,782L211,766L211,784L148,811L271,779L273,788L251,809L297,773L359,744L310,755L309,737L379,719L157,1210L282,1137L250,1172L196,1265L175,1281L180,1288L198,1291L182,1284L229,1247L231,1268L203,1289L214,1286L247,1245L261,1243L907,650L915,633L871,642L863,633L850,642L842,631L834,638L839,650L825,656L816,648L1016,469L1027,474L1023,463L1035,451L1056,446L1058,434L999,433L1058,370L1056,356L1001,359L1005,372L1023,362L1035,366L1037,377L1023,388L1005,375L975,382L977,365L991,360L966,362L960,373L969,381L953,379L940,389L935,383L949,375L950,363L838,372L987,153L983,146L993,145L1030,90L1033,76L1021,61ZM271,1207L271,1218L274,1222L258,1232L252,1225L271,1207ZM435,1068L438,1074L432,1077L427,1082L425,1080L424,1075L435,1068ZM486,1009L488,1011L491,1021L478,1030L476,1024L472,1020L474,1018L479,1017L486,1009ZM455,1007L459,1018L447,1026L445,1030L445,1037L437,1045L433,1041L431,1041L406,1064L407,1069L404,1072L400,1073L371,1104L371,1118L362,1121L358,1127L356,1127L354,1124L319,1160L318,1164L321,1169L306,1178L303,1182L300,1178L298,1179L297,1177L352,1115L428,1033L455,1007ZM526,977L530,987L521,992L517,997L510,987L512,985L520,983L523,980L523,978L526,977ZM491,969L493,971L493,976L497,983L495,985L487,987L483,993L477,986L477,984L491,969ZM566,939L568,943L568,950L571,954L561,960L556,966L548,955L550,953L556,952L562,946L564,940L566,939ZM567,925L571,928L571,930L566,933L563,929L567,925ZM610,893L612,895L613,902L616,906L602,916L595,903L606,898L610,893ZM651,860L653,862L654,870L656,872L653,875L648,876L643,881L641,881L639,873L635,869L637,867L647,864L651,860ZM659,841L663,855L655,859L653,857L651,845L659,841ZM702,817L706,825L698,831L692,838L685,827L695,823L700,817L702,817ZM713,787L716,794L722,800L722,802L710,810L707,810L704,801L708,797L711,788L713,787ZM752,766L757,779L746,784L740,772L752,766ZM222,764L218,769L212,766L213,764L219,762L222,764ZM266,751L259,756L257,764L258,768L256,770L228,778L226,777L231,768L231,761L234,758L264,749L266,751ZM782,740L787,749L783,752L777,753L772,747L782,740ZM306,739L301,745L302,752L305,755L303,757L272,766L269,766L267,764L273,756L272,749L274,747L303,738L306,739ZM244,728L248,736L237,743L234,740L233,736L238,730L244,728ZM814,717L819,725L810,733L803,723L810,718L814,717ZM851,689L853,691L853,695L844,703L842,703L837,696L839,694L848,692L851,689ZM795,667L797,669L797,672L787,678L785,676L795,667ZM868,668L854,683L848,674L842,671L828,684L831,695L823,698L817,708L815,707L813,700L808,697L793,710L794,716L797,720L796,723L789,725L784,730L778,723L775,723L761,734L761,740L765,746L758,750L754,756L747,746L744,747L727,762L728,766L726,768L720,770L715,775L712,784L707,781L691,796L686,795L671,808L670,817L674,822L672,824L666,826L660,832L657,825L653,823L621,853L625,865L615,872L611,884L609,883L607,873L604,870L601,871L580,889L581,895L585,900L571,909L567,920L560,911L530,935L533,947L537,953L531,956L525,965L517,955L508,954L575,886L663,805L717,760L803,695L856,658L868,668ZM810,654L812,662L805,666L802,666L800,662L810,654ZM884,640L890,651L896,649L898,651L890,660L887,659L877,665L873,662L870,650L884,640ZM960,427L963,430L963,432L961,434L956,434L955,432L960,427ZM978,420L981,424L981,427L973,430L970,425L975,420L978,420ZM983,405L986,408L986,410L981,415L978,415L975,411L981,405L983,405ZM1004,394L1007,397L1010,405L997,413L992,407L992,401L995,398L1000,397L1004,394ZM1050,374L1051,376L1043,384L1041,384L1039,378L1045,374L1050,374ZM883,383L877,391L877,395L879,397L875,400L854,403L849,393L841,399L841,404L839,406L824,409L815,409L805,412L801,411L807,405L807,403L804,400L807,397L813,395L819,387L822,389L822,392L824,393L834,376L844,378L850,390L857,388L859,386L865,373L877,373L879,375L880,380L883,383ZM930,371L934,381L932,383L927,384L922,392L914,393L910,386L906,384L899,396L889,398L884,397L891,391L886,383L895,374L901,376L905,381L909,381L912,379L918,370L928,369L930,371ZM834,360L836,362L836,367L830,377L821,378L817,372L818,367L820,365L829,364L834,360ZM848,336L851,345L851,350L845,355L837,357L834,354L832,342L834,340L848,336ZM863,314L865,316L867,325L860,333L851,334L848,329L849,320L851,318L863,314ZM877,292L881,298L881,303L877,308L868,311L864,305L864,297L872,292L877,292ZM893,270L896,274L896,281L887,288L883,288L880,285L879,277L885,271L893,270ZM907,245L910,249L910,257L903,262L897,263L893,255L893,250L898,246L907,245ZM895,231L895,235L889,242L889,247L881,253L880,260L872,267L871,274L859,284L859,295L848,304L846,308L847,315L844,318L840,318L830,330L830,339L821,346L814,354L815,366L804,376L805,379L800,382L798,386L799,393L804,400L796,407L791,414L756,420L754,418L849,289L895,231ZM923,222L926,225L927,230L914,238L911,234L910,227L912,225L920,224L923,222ZM888,216L893,212L897,214L900,218L893,218L890,220L888,216ZM934,199L938,203L940,209L935,215L927,217L923,210L923,205L926,202L934,199ZM921,197L922,203L914,210L907,219L907,222L902,225L901,223L921,197ZM901,188L904,188L906,190L906,194L903,197L901,197L898,193L898,191L901,188ZM879,176L882,176L885,179L885,181L882,184L879,184L876,181L876,179L879,176ZM906,162L909,162L912,165L912,169L909,172L903,169L903,165L906,162ZM934,160L939,160L942,164L941,167L937,170L935,170L931,166L934,160ZM885,146L887,146L891,150L891,152L888,155L885,155L882,152L882,149L885,146ZM945,145L948,145L952,148L952,150L947,155L944,155L941,152L941,149L945,145ZM918,140L920,140L924,144L923,150L919,153L917,153L913,149L913,145L918,140ZM954,126L956,126L960,130L960,134L956,138L954,138L949,133L949,131L954,126ZM895,125L897,125L902,130L902,132L898,136L895,135L892,131L892,128L895,125ZM938,115L940,115L946,122L945,126L940,130L937,130L932,124L933,120L938,115ZM906,110L910,111L913,114L913,119L910,122L905,121L901,116L902,113L906,110ZM936,109L938,113L930,117L928,115L929,112L932,109L936,109ZM889,97L608,471L948,411L226,1120L454,610L190,679L407,201L889,97ZM962,96L969,103L969,109L965,113L958,116L955,113L955,109L952,103L958,96L962,96ZM916,94L920,95L924,100L923,105L919,108L917,108L911,101L916,94ZM927,78L931,78L935,82L935,87L930,91L926,90L923,86L923,82L927,78ZM1022,75L1026,80L1025,88L1017,96L1011,99L1011,107L1006,112L1000,114L997,118L997,122L987,129L984,134L985,138L972,147L968,154L972,159L969,164L969,167L966,170L958,168L941,182L943,185L945,185L950,181L950,178L953,176L958,183L956,190L952,192L945,189L941,192L936,187L932,192L930,192L927,189L949,163L949,161L970,134L969,127L972,124L978,123L978,114L983,109L987,111L990,109L991,106L985,101L986,94L990,90L996,89L1001,95L1003,95L1009,87L1010,80L1017,74L1022,75ZM951,73L957,77L958,83L951,88L951,93L944,100L941,100L937,96L937,91L944,83L947,82L946,77L951,73ZM978,70L985,77L986,83L979,93L973,97L970,97L965,92L965,88L969,85L968,75L971,71L978,70ZM1001,65L1006,65L1011,72L1010,76L1005,81L1001,81L996,76L996,69L1001,65Z" style="fill:rgb(0,19,33);"/>
    </g>
    <g id="orange-bolt">
        <path d="M888,98L408,202L191,678L455,610L228,1116L946,412L606,472L888,98Z" style="fill:rgb(255,90,0);"/>
    </g>
</svg>
